<svg width="168" height="26.4" xmlns="http://www.w3.org/2000/svg">
 <metadata id="metadata25">image/svg+xml</metadata>

 <style type="text/css">.st0{fill:#EF4F19;}
	.st1{fill:#FFFFFF;}
	.st2{fill:none;stroke:#EF4F19;stroke-miterlimit:10;}</style>
 <g>
  <title>background</title>
  <rect fill="none" id="canvas_background" height="28.4" width="170" y="-1" x="-1"/>
 </g>
 <g>
  <title>Layer 1</title>
  <path fill="#ef4f19" d="m8.30664,2.69922l0,4.5l4.5,0l0,18.10156l9.10156,0l0,-18.10156l4.5,0l0,-4.5l-18.10156,0z" id="XMLID_98_"/>
  <path fill="#ef4f19" d="m29.80664,2.69922l0,22.60156l9.10156,0l4.5,-4.5l4.5,4.5l9.09961,0l0,-22.60156l-9.09961,0l0,13.60156l-4.5,-4.5l-4.5,4.5l0,-13.60156l-9.10156,0z" id="XMLID_100_"/>
  <path fill="#ef4f19" d="m68.9082,8.09961c-2.4,0 -4.40156,0.8 -6.10156,2.5c-1.7,1.7 -2.5,3.69961 -2.5,6.09961l0,4.30078c0,1.2 0.50078,2.29961 1.30078,3.09961c0.9,0.9 1.89961,1.30078 3.09961,1.30078l17.20117,0l0,-17.30078l-13,0zm0.0996,4.30078l4.29883,0l0,8.59961l-4.29883,0l0,-8.59961z" id="XMLID_102_"/>
  <path fill="#ef4f19" d="m85.20703,8.09961l0,17.20117l12.80078,0c2.4,0 4.39961,-0.8 6.09961,-2.5c1.7,-1.6 2.59961,-3.70156 2.59961,-6.10156l0,-8.59961l-8.59961,0l0,13l-4.30078,0l0,-13l-8.59961,0z" id="XMLID_105_"/>
  <path fill="#ef4f19" d="m118.70703,8.09961c-2.4,0 -4.39961,0.8 -6.09961,2.5c-1.7,1.7 -2.5,3.69961 -2.5,6.09961l0,4.30078c0,1.2 0.39922,2.19961 1.19922,3.09961c0.9,0.9 1.90156,1.30078 3.10156,1.30078l0,-0.09961l4.19922,0l0,-4.30078l13,0l0,-8.59961c0,-1.1 -0.40078,-2.1 -1.30078,-3c-0.8,-0.9 -1.8,-1.30078 -3,-1.30078l-8.59961,0zm0.0996,4.30078l4.30078,0l0,4.29883l-4.30078,0l0,-4.29883z" id="XMLID_107_"/>
  <path fill="#ef4f19" d="m135.00781,8.09961l0,17.30078l0,0.09961l8.69922,0l0,-13l4.30078,0l0,4.30078l8.59961,0c0,-2.4 -0.8,-4.40156 -2.5,-6.10156c-1.7,-1.7 -3.69961,-2.59961 -6.09961,-2.59961l-13,0z" id="XMLID_110_"/>
  <path fill="#ef4f19" d="m161.00781,-1c-1.3,0 -2.50039,0.50039 -3.40039,1.40039c-0.9,0.9 -1.40039,2.10039 -1.40039,3.40039c0,1.4 0.50039,2.49844 1.40039,3.39844c0.9,0.9 2.10039,1.40039 3.40039,1.40039c1.3,0 2.50039,-0.50039 3.40039,-1.40039c0.9,-0.9 1.39844,-2.09844 1.39844,-3.39844c0,-1.3 -0.49844,-2.50039 -1.39844,-3.40039c-0.9,-0.9 -2.10039,-1.40039 -3.40039,-1.40039zm0,0.69922c1.2,0 2.10039,0.40117 2.90039,1.20117c0.8,0.8 1.19922,1.80039 1.19922,2.90039c0,1.1 -0.39922,2.09844 -1.19922,2.89844c-0.8,0.8 -1.70039,1.20117 -2.90039,1.20117c-1.2,0 -2.10039,-0.40117 -2.90039,-1.20117c-0.8,-0.8 -1.19922,-1.79844 -1.19922,-2.89844c0,-1.2 0.39922,-2.10039 1.19922,-2.90039c0.8,-0.8 1.70039,-1.20117 2.90039,-1.20117zm-1.70117,1.10156l0,5.89844l0.90039,0l0,-2.59961l0.90039,0l1.5,2.59961l0.69922,0l-1.59961,-2.69922c0.8,-0.3 1.20117,-0.79961 1.20117,-1.59961c0,-1.1 -0.70156,-1.59961 -2.10156,-1.59961l-1.5,0zm-0.59961,0.69922l0.40039,0l0.30078,0c0.9,0 1.29883,0.3 1.29883,1c0,0.4 -0.0988,0.70078 -0.29883,0.80078c-0.2,0.1 -0.50156,0.19922 -1.10156,0.19922l-0.59961,0l0,-2z" id="XMLID_152_"/>
 </g>
</svg>